{"title":"Baby Driver 2017 Movies HD TS XviD Clean Audio V2 New +Sample ☻r","magnet":"magnet:?xt=urn:btih:92e89c0a9bd3600207ae5b1badbc6ddae994f57a&dn=Baby+Driver+2017+Movies+HD+TS+XviD+Clean+Audio+V2+New+%2BSample+%E2%98%BBr&tr=udp%3A%2F%2Ftracker.leechers-paradise.org%3A6969&tr=udp%3A%2F%2Fzer0day.ch%3A1337&tr=udp%3A%2F%2Fopen.demonii.com%3A1337&tr=udp%3A%2F%2Ftracker.coppersurfer.tk%3A6969&tr=udp%3A%2F%2Fexodus.desync.com%3A6969","uploader":"basicssom","categoryP":"video","categoryS":"movies","size":"745087426","seeders":"0","leechers":"0","description":"----------------------------------------------------------------\r\nBaby Driver 2017 Movies HD TS XviD Clean Audio V2 AAC New Source with Sample &#x263B;rDX&#x263B;\r\n\r\nSCREEN SHOTS &amp; POSTER:\r\n   <a href=\"\nhttp://postimage.co.nr/2017/7/banking/index.html\" rel=\"nofollow\" target=\"_NEW\">\nhttp://postimage.co.nr/2017/7/banking/index.html</a>  <a href=\"\nhttp://postimage.co.nr/2017/7/banking/1.html\" rel=\"nofollow\" target=\"_NEW\">\nhttp://postimage.co.nr/2017/7/banking/1.html</a>   <a href=\"\nhttp://postimage.co.nr/2017/7/banking/2.html\" rel=\"nofollow\" target=\"_NEW\">\nhttp://postimage.co.nr/2017/7/banking/2.html</a>   <a href=\"\nhttp://postimage.co.nr/2017/7/banking/3.html\" rel=\"nofollow\" target=\"_NEW\">\nhttp://postimage.co.nr/2017/7/banking/3.html</a>   <a href=\"\nhttp://postimage.co.nr/2017/7/banking/4.html\" rel=\"nofollow\" target=\"_NEW\">\nhttp://postimage.co.nr/2017/7/banking/4.html</a>   <a href=\"\nhttp://postimage.co.nr/2017/7/banking/5.html\" rel=\"nofollow\" target=\"_NEW\">\nhttp://postimage.co.nr/2017/7/banking/5.html</a>   <a href=\"\nhttp://postimage.co.nr/2017/7/banking/6.html\" rel=\"nofollow\" target=\"_NEW\">\nhttp://postimage.co.nr/2017/7/banking/6.html</a>   <a href=\"\nhttp://postimage.co.nr/2017/7/banking/7.html\" rel=\"nofollow\" target=\"_NEW\">\nhttp://postimage.co.nr/2017/7/banking/7.html</a>   <a href=\"\nhttp://postimage.co.nr/2017/7/banking/8.html\" rel=\"nofollow\" target=\"_NEW\">\nhttp://postimage.co.nr/2017/7/banking/8.html</a>   <a href=\"\nhttp://postimage.co.nr/2017/7/banking/9.html\" rel=\"nofollow\" target=\"_NEW\">\nhttp://postimage.co.nr/2017/7/banking/9.html</a>   <a href=\"\nhttp://postimage.co.nr/2017/7/banking/10.html\" rel=\"nofollow\" target=\"_NEW\">\nhttp://postimage.co.nr/2017/7/banking/10.html</a>\r\n\r\nFile size                                : 705 MiB\r\nDuration                                 : 1 h 49 min\r\nOverall bit rate                         : 902 kb/s\r\nMovie name                               : Baby Driver 2017 Movies HD TS XviD Clean Audio V2 AAC New Source &#x263B;rDX&#x263B;\r\n\r\nVideo\r\nID                                       : 2\r\nFormat                                   : AVC\r\nFormat/Info                              : Advanced Video Codec\r\nFormat profile                           : <a class=\"__cf_email__\" href=\"/cdn-cgi/l/email-protection\" data-cfemail=\"430b2a242b030f776d72\">[email&#xA0;protected]</a><script data-cfhash=\"f9e31\" type=\"text/javascript\">/* <![CDATA[ */!function(t,e,r,n,c,a,p){try{t=document.currentScript||function(){for(t=document.getElementsByTagName('script'),e=t.length;e--;)if(t[e].getAttribute('data-cfhash'))return t[e]}();if(t&&(c=t.previousSibling)){p=t.parentNode;if(a=c.getAttribute('data-cfemail')){for(e='',r='0x'+a.substr(0,2)|0,n=2;a.length-n;n+=2)e+='%'+('0'+('0x'+a.substr(n,2)^r).toString(16)).slice(-2);p.replaceChild(document.createTextNode(decodeURIComponent(e)),c)}p.removeChild(t)}}catch(u){}}()/* ]]> */</script>\r\nFormat settings, CABAC                   : Yes\r\nFormat settings, ReFrames                : 5 frames\r\nCodec ID                                 : V_MPEG4/ISO/AVC\r\nDuration                                 : 1 h 49 min\r\nBit rate                                 : 772 kb/s\r\nWidth                                    : 720 pixels\r\nHeight                                   : 304 pixels\r\nDisplay aspect ratio                     : 2.35:1\r\nFrame rate mode                          : Constant\r\nFrame rate                               : 29.970 (30000/1001) FPS\r\nColor space                              : YUV\r\nChroma subsampling                       : 4:2:0\r\nBit depth                                : 8 bits\r\nScan type                                : Progressive\r\nBits/(Pixel*Frame)                       : 0.118\r\nStream size                              : 591 MiB (84%)\r\nTitle                                    : &#x263B;rDX&#x263B;\r\nWriting library                          : XviD\r\n\r\nAudio\r\nID                                       : 1\r\nFormat                                   : MPEG Audio\r\nFormat version                           : Version 1\r\nFormat profile                           : Layer 3\r\nMode                                     : Joint stereo\r\nMode extension                           : MS Stereo\r\nCodec ID                                 : A_MPEG/L3\r\nCodec ID/Hint                            : MP3\r\nDuration                                 : 1 h 49 min\r\nBit rate mode                            : Constant\r\nBit rate                                 : 128 kb/s\r\nChannel(s)                               : 2 channels\r\nSampling rate                            : 48.0 kHz\r\nCompression mode                         : Lossy\r\nDelay relative to video                  : 17 ms\r\nStream size                              : 100 MiB (14%)\r\nTitle                                    : &#x263B;rDX&#x263B;\r\nLanguage                                 : English\r\nDefault                                  : Yes\r\nForced                                   : No","last_updated":"2017-07-16T12:00:14.108Z","parsed":{"xt":"urn:btih:92e89c0a9bd3600207ae5b1badbc6ddae994f57a","dn":"Baby Driver 2017 Movies HD TS XviD Clean Audio V2 New  Sample ☻r","tr":["udp://exodus.desync.com:6969","udp://open.demonii.com:1337","udp://tracker.coppersurfer.tk:6969","udp://tracker.leechers-paradise.org:6969","udp://zer0day.ch:1337"],"infoHash":"92e89c0a9bd3600207ae5b1badbc6ddae994f57a","infoHashBuffer":{"type":"Buffer","data":[146,232,156,10,155,211,96,2,7,174,91,27,173,188,109,218,233,148,245,122]},"name":"Baby Driver 2017 Movies HD TS XviD Clean Audio V2 New  Sample ☻r","announce":["udp://exodus.desync.com:6969","udp://open.demonii.com:1337","udp://tracker.coppersurfer.tk:6969","udp://tracker.leechers-paradise.org:6969","udp://zer0day.ch:1337"],"urlList":[]}}